<?xml version="1.0" encoding="UTF-8" standalone="no"?>
<!DOCTYPE svg PUBLIC "-//W3C//DTD SVG 1.1//EN" "http://www.w3.org/Graphics/SVG/1.1/DTD/svg11.dtd">
<svg width="100%" height="100%" viewBox="0 0 512 512" version="1.1" xmlns="http://www.w3.org/2000/svg" xmlns:xlink="http://www.w3.org/1999/xlink" xml:space="preserve" xmlns:affinity="https://www.affinity.studio/" style="fill-rule:evenodd;clip-rule:evenodd;stroke-linecap:round;stroke-linejoin:round;stroke-miterlimit:1.5;">
    <g transform="matrix(0.705302,0,0,0.705302,-338.541827,-448.227776)">
        <circle cx="582.5" cy="1164.5" r="17.5" style="fill:none;stroke:black;stroke-width:11.82px;"/>
    </g>
    <g transform="matrix(0.705302,0,0,0.705302,-369.87352,-699.830758)">
        <circle cx="582.5" cy="1164.5" r="17.5" style="fill:none;stroke:black;stroke-width:11.82px;"/>
    </g>
    <g transform="matrix(0.705302,0,0,0.705302,-180.933922,-448.227776)">
        <circle cx="582.5" cy="1164.5" r="17.5" style="fill:none;stroke:black;stroke-width:11.82px;"/>
    </g>
    <g transform="matrix(0.705302,0,0,0.705302,-180.933922,-524.183393)">
        <circle cx="582.5" cy="1164.5" r="17.5" style="fill:none;stroke:black;stroke-width:11.82px;"/>
    </g>
    <g transform="matrix(0.705302,0,0,0.705302,-28.073242,-610.582908)">
        <circle cx="582.5" cy="1164.5" r="17.5" style="fill:none;stroke:black;stroke-width:11.82px;"/>
    </g>
    <g transform="matrix(0.705302,0,0,0.705302,60.225163,-656.156278)">
        <circle cx="582.5" cy="1164.5" r="17.5" style="fill:none;stroke:black;stroke-width:11.82px;"/>
    </g>
    <g transform="matrix(0.705302,0,0,0.705302,27.944026,-700.780203)">
        <circle cx="582.5" cy="1164.5" r="17.5" style="fill:none;stroke:black;stroke-width:11.82px;"/>
    </g>
    <g transform="matrix(0.949445,0,0,0.949445,-477.432099,-733.007087)">
        <path d="M555,909L663.676,1017.676L793.161,888.192" style="fill:none;stroke:black;stroke-width:8.78px;"/>
    </g>
    <g transform="matrix(0.949445,0,0,0.949445,-477.432099,-733.007087)">
        <path d="M580,1152L580,998L661.085,1079.085L791.529,950.641" style="fill:none;stroke:black;stroke-width:8.78px;"/>
    </g>
    <g transform="matrix(0.949445,0,0,0.949445,-477.432099,-733.007087)">
        <path d="M794,1118L937,1118L995,1067L918,1004" style="fill:none;stroke:black;stroke-width:8.78px;"/>
    </g>
    <g transform="matrix(0.949445,0,0,0.949445,-477.432099,-733.007087)">
        <path d="M759,1166L954,1166L997,1125L996,1068" style="fill:none;stroke:black;stroke-width:8.78px;"/>
    </g>
    <g transform="matrix(0.949445,0,0,0.949445,-477.432099,-733.007087)">
        <path d="M961,1097L843,997L899,947L985,946" style="fill:none;stroke:black;stroke-width:8.78px;"/>
    </g>
    <g transform="matrix(0.949445,0,0,0.949445,-477.432099,-733.007087)">
        <path d="M951.719,899L887,899L842,942L841,995" style="fill:none;stroke:black;stroke-width:8.78px;"/>
    </g>
    <g transform="matrix(0.949445,0,0,0.949445,-477.432099,-575.399181)">
        <path d="M755.281,988.719L791.999,952.001" style="fill:none;stroke:black;stroke-width:8.78px;"/>
    </g>
    <g transform="matrix(0.949445,0,0,0.949445,-479.330989,-733.007087)">
        <path d="M795,889L795,1116" style="fill:none;stroke:black;stroke-width:8.78px;"/>
    </g>
    <g transform="matrix(0.949445,0,0,0.949445,-477.432099,-733.007087)">
        <path d="M746,1072L746,996" style="fill:none;stroke:black;stroke-width:8.78px;"/>
    </g>
</svg>
